<svg xmlns="http://www.w3.org/2000/svg" viewBox="0 0 64 64">
  <!-- Green Australia shape -->
  <path d="M 45,20 L 50,22 L 52,25 L 53,30 L 52,35 L 50,40 L 47,44 L 43,47 L 38,49 L 33,50 L 28,49 L 23,47 L 19,44 L 16,40 L 14,35 L 13,30 L 14,25 L 17,21 L 22,18 L 28,16 L 34,16 L 40,18 Z"
        fill="#7CB342" stroke="#558B2F" stroke-width="1"/>
  <!-- Tasmania -->
  <circle cx="38" cy="52" r="2.5" fill="#7CB342" stroke="#558B2F" stroke-width="0.5"/>

  <!-- Orange location pin -->
  <g transform="translate(18, 8)">
    <path d="M 8,0 C 4,0 1,3 1,7 C 1,12 8,20 8,20 C 8,20 15,12 15,7 C 15,3 12,0 8,0 Z"
          fill="#FF6D00" stroke="#E65100" stroke-width="1"/>
    <circle cx="8" cy="7" r="3" fill="#FFF"/>
  </g>
</svg>
