<svg xmlns="http://www.w3.org/2000/svg" viewBox="0 0 100 100">
  <!-- Orange location pin top -->
  <circle cx="30" cy="25" r="12" fill="#FF6B35"/>
  <circle cx="30" cy="25" r="5" fill="#fff"/>

  <!-- Green Australia shape -->
  <g transform="translate(15, 35) scale(0.7)">
    <!-- Simplified Australia outline -->
    <path d="M 85,15 L 95,20 L 98,25 L 100,35 L 98,45 L 95,55 L 90,62 L 85,68 L 80,72 L 70,75 L 60,76 L 50,75 L 40,73 L 30,70 L 25,65 L 20,58 L 15,50 L 12,40 L 10,30 L 12,20 L 18,12 L 25,8 L 35,5 L 45,4 L 55,5 L 65,7 L 75,10 L 85,15 Z"
          fill="#6BBF59"
          stroke="#4A9B3F"
          stroke-width="1.5"/>
    <!-- Tasmania dot -->
    <circle cx="70" cy="85" r="4" fill="#6BBF59" stroke="#4A9B3F" stroke-width="1"/>
  </g>
</svg>
